<svg width="512" height="512" viewBox="0 0 512 512" fill="none" xmlns="http://www.w3.org/2000/svg">
  <defs>
    <radialGradient id="magentaGlow" cx="0" cy="0" r="1" gradientUnits="userSpaceOnUse" gradientTransform="translate(150 315) rotate(12) scale(118 148)">
      <stop stop-color="#FF2DB6"/>
      <stop offset="1" stop-color="#FF2DB6" stop-opacity="0"/>
    </radialGradient>
    <radialGradient id="cyanGlow" cx="0" cy="0" r="1" gradientUnits="userSpaceOnUse" gradientTransform="translate(360 290) rotate(18) scale(152 176)">
      <stop stop-color="#00D8FF"/>
      <stop offset="1" stop-color="#00D8FF" stop-opacity="0"/>
    </radialGradient>
    <radialGradient id="orbGlow" cx="0" cy="0" r="1" gradientUnits="userSpaceOnUse" gradientTransform="translate(380 152) rotate(90) scale(66)">
      <stop stop-color="#FF6AE9"/>
      <stop offset="0.42" stop-color="#A93DFF" stop-opacity="0.72"/>
      <stop offset="1" stop-color="#A93DFF" stop-opacity="0"/>
    </radialGradient>
    <linearGradient id="ringStroke" x1="128" y1="358" x2="396" y2="138" gradientUnits="userSpaceOnUse">
      <stop stop-color="#FF139B"/>
      <stop offset="0.5" stop-color="#6225FF"/>
      <stop offset="1" stop-color="#1DE2FF"/>
    </linearGradient>
    <linearGradient id="ringHighlight" x1="154" y1="373" x2="364" y2="166" gradientUnits="userSpaceOnUse">
      <stop stop-color="#FF7EE0"/>
      <stop offset="0.52" stop-color="#C68BFF"/>
      <stop offset="1" stop-color="#A5FFFF"/>
    </linearGradient>
    <linearGradient id="coreFill" x1="140" y1="146" x2="378" y2="394" gradientUnits="userSpaceOnUse">
      <stop stop-color="#1A0B42"/>
      <stop offset="0.5" stop-color="#2E2580"/>
      <stop offset="1" stop-color="#203F99"/>
    </linearGradient>
    <linearGradient id="monogramFill" x1="144" y1="170" x2="382" y2="390" gradientUnits="userSpaceOnUse">
      <stop stop-color="#150933"/>
      <stop offset="0.5" stop-color="#2E227A"/>
      <stop offset="1" stop-color="#24104E"/>
    </linearGradient>
    <linearGradient id="monogramEdge" x1="170" y1="156" x2="334" y2="224" gradientUnits="userSpaceOnUse">
      <stop stop-color="#8B7DFF"/>
      <stop offset="1" stop-color="#44DFFF"/>
    </linearGradient>
    <linearGradient id="swooshFill" x1="98" y1="354" x2="224" y2="274" gradientUnits="userSpaceOnUse">
      <stop stop-color="#FF0F96"/>
      <stop offset="0.54" stop-color="#FF4AD0"/>
      <stop offset="1" stop-color="#FFD6FF"/>
    </linearGradient>
    <linearGradient id="swooshShadow" x1="122" y1="380" x2="250" y2="266" gradientUnits="userSpaceOnUse">
      <stop stop-color="#6C12D8"/>
      <stop offset="1" stop-color="#1B0C4A"/>
    </linearGradient>
    <linearGradient id="orbFill" x1="352" y1="126" x2="392" y2="168" gradientUnits="userSpaceOnUse">
      <stop stop-color="#00C6FF"/>
      <stop offset="0.5" stop-color="#6B39FF"/>
      <stop offset="1" stop-color="#FF39C6"/>
    </linearGradient>
    <filter id="softBlur" x="-120" y="-120" width="744" height="744" filterUnits="userSpaceOnUse" color-interpolation-filters="sRGB">
      <feGaussianBlur stdDeviation="34"/>
    </filter>
    <filter id="logoShadow" x="88" y="120" width="336" height="312" filterUnits="userSpaceOnUse" color-interpolation-filters="sRGB">
      <feDropShadow dx="0" dy="12" stdDeviation="18" flood-color="#090014" flood-opacity="0.35"/>
    </filter>
  </defs>

  <g filter="url(#softBlur)" opacity="0.9">
    <ellipse cx="152" cy="315" rx="110" ry="126" fill="url(#magentaGlow)"/>
    <ellipse cx="362" cy="286" rx="142" ry="162" fill="url(#cyanGlow)"/>
    <circle cx="380" cy="152" r="54" fill="url(#orbGlow)"/>
  </g>

  <circle cx="256" cy="256" r="166" stroke="url(#ringStroke)" stroke-width="36" opacity="0.24"/>
  <circle cx="256" cy="256" r="154" stroke="url(#ringStroke)" stroke-width="28"/>
  <path d="M138 342C165 376 207 398 255 398C324 398 382 352 404 288" stroke="url(#ringHighlight)" stroke-width="12" stroke-linecap="round" opacity="0.9"/>
  <path d="M147 206C174 160 223 130 280 130C329 130 373 151 402 186" stroke="url(#ringHighlight)" stroke-width="8" stroke-linecap="round" opacity="0.8"/>

  <circle cx="256" cy="256" r="127" fill="url(#coreFill)" stroke="#7FE6FF" stroke-opacity="0.25"/>
  <circle cx="256" cy="256" r="127" fill="url(#coreFill)" fill-opacity="0.14"/>
  <circle cx="378" cy="150" r="30" fill="url(#orbFill)"/>
  <circle cx="390" cy="138" r="11" fill="#FFE9FF" fill-opacity="0.9"/>

  <g filter="url(#logoShadow)">
    <path d="M142 175H300C352 175 388 204 388 248C388 292 352 322 300 322H244L211 356H286L344 420H287L232 343H160L160 302L219 245H298C323 245 338 233 338 215C338 197 323 186 298 186H142V175Z" fill="url(#monogramFill)"/>
    <path d="M141 175H304C338 175 363 189 375 213" stroke="url(#monogramEdge)" stroke-width="4" stroke-linecap="round" opacity="0.72"/>
    <path d="M109 372L220 281L176 336L72 392L109 372Z" fill="url(#swooshFill)"/>
    <path d="M141 381L225 286L179 358L126 418L141 381Z" fill="url(#swooshShadow)"/>
    <path d="M109 372L220 281L189 301L84 384L109 372Z" fill="#FFE8FF" fill-opacity="0.65"/>
  </g>
</svg>
