<svg width="512" height="512" viewBox="70 100 350 350" fill="none" xmlns="http://www.w3.org/2000/svg">
  <defs>
    <linearGradient id="ringStroke" x1="122" y1="366" x2="394" y2="142" gradientUnits="userSpaceOnUse">
      <stop stop-color="#FF139B"/>
      <stop offset="0.5" stop-color="#6225FF"/>
      <stop offset="1" stop-color="#1DE2FF"/>
    </linearGradient>
    <linearGradient id="coreFill" x1="139" y1="147" x2="380" y2="392" gradientUnits="userSpaceOnUse">
      <stop stop-color="#241058"/>
      <stop offset="0.55" stop-color="#352C9D"/>
      <stop offset="1" stop-color="#2B63C5"/>
    </linearGradient>
    <linearGradient id="monogramFill" x1="143" y1="173" x2="381" y2="393" gradientUnits="userSpaceOnUse">
      <stop stop-color="#201046"/>
      <stop offset="0.5" stop-color="#3A2E9A"/>
      <stop offset="1" stop-color="#28155C"/>
    </linearGradient>
    <linearGradient id="swooshFill" x1="95" y1="356" x2="223" y2="276" gradientUnits="userSpaceOnUse">
      <stop stop-color="#FF0F96"/>
      <stop offset="0.52" stop-color="#FF4BD1"/>
      <stop offset="1" stop-color="#FFD8FF"/>
    </linearGradient>
    <linearGradient id="orbFill" x1="353" y1="126" x2="393" y2="169" gradientUnits="userSpaceOnUse">
      <stop stop-color="#00C6FF"/>
      <stop offset="0.48" stop-color="#6A38FF"/>
      <stop offset="1" stop-color="#FF39C6"/>
    </linearGradient>
  </defs>

  <circle cx="256" cy="256" r="166" stroke="url(#ringStroke)" stroke-width="36" opacity="0.18"/>
  <circle cx="256" cy="256" r="154" stroke="url(#ringStroke)" stroke-width="28"/>
  <circle cx="256" cy="256" r="127" fill="url(#coreFill)" stroke="#A6F4FF" stroke-opacity="0.4" stroke-width="1.5"/>
  <circle cx="378" cy="150" r="30" fill="url(#orbFill)"/>
  <circle cx="390" cy="138" r="10" fill="#FFF2FF"/>
  <path d="M142 175H300C352 175 388 204 388 248C388 292 352 322 300 322H244L211 356H286L344 420H287L232 343H160L160 302L219 245H298C323 245 338 233 338 215C338 197 323 186 298 186H142V175Z" fill="url(#monogramFill)" stroke="#180B35" stroke-width="2"/>
  <path d="M109 372L220 281L176 336L72 392L109 372Z" fill="url(#swooshFill)"/>
</svg>
